<svg width="234" height="34" viewBox="0 0 234 34" fill="none" xmlns="http://www.w3.org/2000/svg">
<path d="M211.403 5.2356H219.532L221.181 8.41623C222.725 5.94677 224.911 4.71204 227.738 4.71204C229.632 4.71204 231.133 5.29668 232.241 6.46596C233.358 7.62652 233.916 9.13612 233.916 10.9948C233.916 12.1553 233.506 13.1457 232.686 13.966C231.875 14.7775 230.888 15.1832 229.728 15.1832C228.567 15.1832 227.577 14.7775 226.757 13.966C225.945 13.1457 225.539 12.1553 225.539 10.9948C225.539 10.5236 225.614 10.0698 225.762 9.6335C225.526 9.49389 225.278 9.42408 225.016 9.42408C224.431 9.42408 223.825 9.80802 223.197 10.5759C222.577 11.3351 221.979 12.4738 221.403 13.9921L221.351 25.1309H227.11V29.3194H211.403V25.1309H214.021V9.42408H211.403V5.2356Z" fill="#7D82FF"/>
<path d="M192.058 18.8482C192.136 19.8604 192.302 20.7635 192.555 21.5576C192.808 22.3517 193.114 23.0017 193.471 23.5078C193.838 24.014 194.261 24.4328 194.741 24.7644C195.221 25.0873 195.714 25.3185 196.22 25.4581C196.726 25.589 197.267 25.6544 197.843 25.6544C199.684 25.6544 201.12 25.301 202.149 24.5942C203.188 23.8787 204.017 22.7792 204.636 21.2958L208.118 22.5C207.804 23.3464 207.402 24.1448 206.914 24.8953C206.434 25.637 205.854 26.322 205.173 26.9503C204.492 27.5785 203.733 28.1195 202.895 28.5733C202.066 29.0183 201.128 29.3674 200.081 29.6204C199.034 29.8735 197.93 30 196.77 30C195.051 30 193.423 29.6989 191.888 29.0969C190.36 28.4948 189.03 27.6571 187.895 26.5838C186.77 25.5017 185.875 24.171 185.212 22.5916C184.558 21.0122 184.23 19.2932 184.23 17.4345C184.23 15.5759 184.558 13.8482 185.212 12.2513C185.875 10.6544 186.77 9.31064 187.895 8.21989C189.03 7.12041 190.36 6.2609 191.888 5.64136C193.423 5.02181 195.051 4.71204 196.77 4.71204C198.489 4.71204 200.112 5.02181 201.639 5.64136C203.175 6.2609 204.505 7.12041 205.631 8.21989C206.765 9.31064 207.66 10.6544 208.314 12.2513C208.977 13.8482 209.309 15.5759 209.309 17.4345L208.982 18.8482H192.058ZM192.149 14.6597H201.39C201.163 12.6527 200.662 11.1911 199.885 10.2749C199.108 9.35863 198.079 8.90052 196.796 8.90052C196.159 8.90052 195.587 9.00523 195.081 9.21465C194.575 9.41535 194.121 9.74258 193.72 10.1963C193.319 10.6414 192.983 11.2391 192.712 11.9895C192.45 12.7312 192.263 13.6213 192.149 14.6597Z" fill="#7D82FF"/>
<path d="M170.88 0H173.497V5.2356H180.827V9.42408H173.497V23.0367C173.497 23.63 173.663 24.1274 173.995 24.5288C174.335 24.9302 174.867 25.1309 175.592 25.1309C176.403 25.1309 177.093 24.8647 177.66 24.3325C178.227 23.7915 178.585 23.0105 178.733 21.9895L181.874 22.5131C181.744 23.534 181.49 24.4808 181.115 25.3534C180.749 26.2173 180.269 26.9895 179.675 27.6702C179.082 28.3421 178.345 28.8743 177.463 29.267C176.591 29.651 175.618 29.8429 174.545 29.8429C171.935 29.8429 169.885 29.2365 168.393 28.0236C166.909 26.8019 166.168 25.1396 166.168 23.0367V9.42408H163.55V5.2356H164.073C165.417 5.2356 166.604 4.85166 167.634 4.08377C168.663 3.31588 169.745 1.95463 170.88 0Z" fill="#7D82FF"/>
<path d="M138.942 5.2356H147.071L148.72 8.41623C150.264 5.94677 152.45 4.71204 155.277 4.71204C157.171 4.71204 158.672 5.29668 159.78 6.46596C160.897 7.62652 161.455 9.13612 161.455 10.9948C161.455 12.1553 161.045 13.1457 160.225 13.966C159.414 14.7775 158.428 15.1832 157.267 15.1832C156.106 15.1832 155.116 14.7775 154.296 13.966C153.484 13.1457 153.079 12.1553 153.079 10.9948C153.079 10.5236 153.153 10.0698 153.301 9.6335C153.065 9.49389 152.817 9.42408 152.555 9.42408C151.97 9.42408 151.364 9.80802 150.736 10.5759C150.116 11.3351 149.518 12.4738 148.942 13.9921L148.89 25.1309H154.649V29.3194H138.942V25.1309H141.56V9.42408H138.942V5.2356Z" fill="#7D82FF"/>
<path d="M133.969 13.5471V25.1309H136.586V29.3194H128.432L127.267 26.5969C126.377 27.8708 125.343 28.7434 124.165 29.2147C122.996 29.6859 121.36 29.9215 119.257 29.9215C118.166 29.9215 117.149 29.7295 116.207 29.3455C115.273 28.9703 114.475 28.4555 113.812 27.801C113.157 27.1466 112.642 26.3613 112.267 25.445C111.901 24.5288 111.717 23.5471 111.717 22.5C111.717 20.6937 112.424 19.1972 113.838 18.0105C115.251 16.815 117.058 16.2173 119.257 16.2173C121.028 16.2173 122.494 16.3874 123.654 16.7277C124.815 17.0593 125.81 17.5916 126.639 18.3246V12.7749C126.639 11.9895 126.53 11.3351 126.312 10.8115C126.102 10.2792 125.784 9.87347 125.356 9.59424C124.928 9.30628 124.449 9.10558 123.916 8.99214C123.384 8.8787 122.747 8.82198 122.005 8.82198C121.412 8.82198 120.875 8.94851 120.395 9.20156C120.666 9.76876 120.801 10.3665 120.801 10.9948C120.801 12.1553 120.391 13.1457 119.571 13.966C118.759 14.7775 117.773 15.1832 116.613 15.1832C115.452 15.1832 114.462 14.7775 113.641 13.966C112.83 13.1457 112.424 12.1553 112.424 10.9948C112.424 10.4014 112.538 9.84293 112.764 9.31937C113 8.79581 113.323 8.33769 113.733 7.94502C114.082 7.57853 114.444 7.2513 114.819 6.96335C115.195 6.66666 115.666 6.37434 116.233 6.08638C116.809 5.7897 117.433 5.54537 118.105 5.3534C118.777 5.16143 119.579 5.00872 120.513 4.89528C121.456 4.77312 122.485 4.71204 123.602 4.71204C125.051 4.71204 126.412 4.92582 127.686 5.3534C128.96 5.78097 130.059 6.37434 130.984 7.1335C131.909 7.89266 132.638 8.82635 133.17 9.93455C133.702 11.0428 133.969 12.2469 133.969 13.5471ZM126.639 23.5078V21.7016C126.098 21.1867 125.487 20.7548 124.806 20.4058C124.134 20.048 123.51 19.8691 122.935 19.8691C121.695 19.8691 120.823 20.0785 120.317 20.4974C119.811 20.9075 119.558 21.575 119.558 22.5C119.558 23.6082 119.776 24.4241 120.212 24.9476C120.648 25.4712 121.46 25.733 122.647 25.733C123.319 25.733 124.017 25.5192 124.741 25.0916C125.474 24.6553 126.106 24.1274 126.639 23.5078Z" fill="#7D82FF"/>
<path d="M98.3667 0H100.985V5.2356H108.314V9.42408H100.985V23.0367C100.985 23.63 101.15 24.1274 101.482 24.5288C101.822 24.9302 102.354 25.1309 103.079 25.1309C103.89 25.1309 104.58 24.8647 105.147 24.3325C105.714 23.7915 106.072 23.0105 106.22 21.9895L109.361 22.5131C109.231 23.534 108.978 24.4808 108.602 25.3534C108.236 26.2173 107.756 26.9895 107.163 27.6702C106.569 28.3421 105.832 28.8743 104.95 29.267C104.078 29.651 103.105 29.8429 102.032 29.8429C99.4226 29.8429 97.3719 29.2365 95.8798 28.0236C94.3964 26.8019 93.6547 25.1396 93.6547 23.0367V9.42408H91.0369V5.2356H91.5604C92.9042 5.2356 94.091 4.85166 95.1206 4.08377C96.1503 3.31588 97.2323 1.95463 98.3667 0Z" fill="#7D82FF"/>
<path d="M75.1728 25.144C75.6702 25.4843 76.4206 25.6544 77.4241 25.6544C78.3229 25.6544 79.0515 25.6021 79.61 25.4974C80.1771 25.3927 80.6047 25.2225 80.8927 24.9869C81.1806 24.7426 81.3726 24.4764 81.4686 24.1885C81.5646 23.8918 81.6126 23.5078 81.6126 23.0366C81.6126 22.4782 81.4642 21.9983 81.1675 21.5969C80.8709 21.1955 80.4695 20.8726 79.9634 20.6283C79.4572 20.3839 78.877 20.1702 78.2225 19.9869C77.5681 19.7949 76.8787 19.6161 76.1545 19.4503C75.4302 19.2757 74.7059 19.0881 73.9817 18.8874C73.2574 18.678 72.5681 18.4075 71.9136 18.0759C71.2592 17.7356 70.6789 17.3386 70.1728 16.8848C69.6667 16.4223 69.2653 15.8246 68.9686 15.0916C68.6719 14.3586 68.5236 13.5166 68.5236 12.5654C68.5236 11.6928 68.6283 10.8988 68.8377 10.1832C69.0471 9.46771 69.3264 8.86125 69.6754 8.36387C70.0244 7.85776 70.4651 7.4171 70.9974 7.04188C71.5297 6.66666 72.0838 6.36561 72.6597 6.13874C73.2443 5.91186 73.8988 5.72861 74.623 5.589C75.356 5.44938 76.0628 5.35776 76.7435 5.31413C77.4241 5.26177 78.1658 5.2356 78.9686 5.2356C80.7138 5.2356 82.2365 5.45811 83.5367 5.90314C84.8456 6.34816 85.8752 6.94589 86.6257 7.69633C87.0271 8.03664 87.3368 8.45113 87.555 8.93978C87.7819 9.41971 87.8953 9.93019 87.8953 10.4712C87.8953 11.4834 87.5375 12.3473 86.822 13.0628C86.1065 13.7784 85.2426 14.1361 84.2304 14.1361C83.2182 14.1361 82.3543 13.7784 81.6387 13.0628C80.9232 12.3473 80.5654 11.4834 80.5654 10.4712C80.5654 10.1047 80.6178 9.7513 80.7225 9.41099C80.2251 9.07067 79.4747 8.90052 78.4712 8.90052C77.2408 8.90052 76.3202 9.04886 75.7094 9.34554C75.1073 9.64223 74.8063 10.192 74.8063 10.9948C74.8063 11.5009 74.9328 11.9503 75.1859 12.3429C75.4389 12.7269 75.7836 13.0454 76.2199 13.2984C76.6562 13.5428 77.1623 13.7784 77.7382 14.0052C78.3229 14.2234 78.9424 14.411 79.5969 14.5681C80.2513 14.7164 80.9232 14.8996 81.6126 15.1178C82.3019 15.3359 82.9738 15.5585 83.6283 15.7853C84.2827 16.0122 84.8979 16.3133 85.4738 16.6885C86.0585 17.055 86.5689 17.4695 87.0052 17.9319C87.4415 18.3944 87.7862 18.9747 88.0393 19.6728C88.2923 20.3621 88.4189 21.1344 88.4189 21.9895C88.4189 23.2112 88.2138 24.2888 87.8037 25.2225C87.4023 26.1475 86.8613 26.8979 86.1806 27.4738C85.5087 28.0497 84.671 28.5209 83.6675 28.8874C82.6641 29.2452 81.6213 29.4939 80.5393 29.6335C79.4572 29.7731 78.2531 29.8429 76.9267 29.8429C74.2478 29.8429 72.0881 29.3325 70.4476 28.3115C68.8159 27.2906 68 25.8813 68 24.0838C68 23.0715 68.3578 22.2077 69.0733 21.4921C69.7888 20.7766 70.6527 20.4188 71.6649 20.4188C72.6771 20.4188 73.541 20.7766 74.2565 21.4921C74.9721 22.2077 75.3298 23.0715 75.3298 24.0838C75.3298 24.4503 75.2775 24.8037 75.1728 25.144Z" fill="#7D82FF"/>
<path fill-rule="evenodd" clip-rule="evenodd" d="M0.00228882 3C0.000770569 3.12557 0 3.25134 0 3.37727C-1.90735e-06 20.2556 13.6826 33.9383 30.561 33.9383C47.4393 33.9383 61.1219 20.2556 61.1219 3.37727C61.1219 3.25134 61.1212 3.12558 61.1197 3H0.00228882ZM42.7135 13.8162C42.7135 17.9584 39.3556 21.3162 35.2135 21.3162C31.0714 21.3162 27.7135 17.9584 27.7135 13.8162C27.7135 9.6741 31.0714 6.31623 35.2135 6.31623C39.3556 6.31623 42.7135 9.6741 42.7135 13.8162ZM51.2135 15.3162C53.6988 15.3162 55.7135 13.3015 55.7135 10.8162C55.7135 8.33095 53.6988 6.31623 51.2135 6.31623C48.7282 6.31623 46.7135 8.33095 46.7135 10.8162C46.7135 13.3015 48.7282 15.3162 51.2135 15.3162Z" fill="#454ADE"/>
</svg>
